<?xml version="1.0" standalone="no"?>
<!DOCTYPE svg PUBLIC "-//W3C//DTD SVG 20010904//EN"
 "http://www.w3.org/TR/2001/REC-SVG-20010904/DTD/svg10.dtd">
<svg version="1.0" xmlns="http://www.w3.org/2000/svg"
 width="512.000000pt" height="512.000000pt" viewBox="0 0 512.000000 512.000000"
 preserveAspectRatio="xMidYMid meet">
<metadata>
Created by potrace 1.16, written by Peter Selinger 2001-2019
</metadata>
<g transform="translate(0.000000,512.000000) scale(0.100000,-0.100000)"
fill="#000000" stroke="none">
<path d="M0 3253 c0 -2029 -2 -1939 55 -2138 77 -265 213 -493 407 -681 191
-185 398 -305 653 -379 199 -57 109 -55 2138 -55 l1867 0 0 1868 c0 2028 2
1938 -55 2137 -74 255 -194 462 -379 653 -188 194 -416 330 -681 407 -199 57
-109 55 -2137 55 l-1868 0 0 -1867z m3975 227 c189 -48 269 -100 294 -192 32
-115 -52 -285 -157 -316 -36 -11 -57 -10 -134 4 -117 21 -267 15 -353 -15
-174 -61 -265 -194 -267 -388 -1 -296 227 -475 519 -408 70 17 198 67 278 109
42 22 127 20 174 -4 78 -39 141 -147 141 -241 0 -90 -43 -142 -198 -239 -198
-122 -368 -174 -572 -173 -185 1 -343 47 -494 144 -193 124 -332 311 -402 544
-24 80 -27 106 -27 235 -1 254 63 425 232 624 149 175 393 307 621 336 93 12
257 3 345 -20z m-2879 -9 c47 -29 63 -54 256 -396 99 -176 188 -329 198 -339
16 -16 23 -18 43 -9 14 7 31 24 39 40 64 127 356 644 377 666 50 55 73 60 207
53 144 -8 178 -16 217 -53 55 -53 70 -97 69 -203 -2 -124 -40 -1132 -51 -1325
-9 -175 -24 -217 -93 -262 -40 -27 -47 -28 -146 -25 -145 4 -192 30 -231 128
-18 45 -17 76 15 482 25 327 27 374 14 382 -10 6 -20 4 -31 -8 -9 -9 -61 -120
-114 -245 -54 -126 -107 -239 -117 -252 -39 -50 -84 -68 -174 -69 l-84 -1 -39
40 c-28 28 -68 97 -130 225 -132 268 -157 315 -174 318 -8 2 -18 -5 -21 -15
-3 -10 10 -189 28 -397 35 -403 35 -432 -7 -493 -40 -58 -88 -80 -193 -88
-113 -9 -140 0 -190 60 -23 29 -38 60 -45 96 -9 52 -68 1280 -70 1460 -1 70 3
94 22 130 37 73 78 99 171 109 140 14 220 12 254 -9z"/>
</g>
</svg>
